<svg width="24" height="23" viewBox="0 0 24 23" fill="none" xmlns="http://www.w3.org/2000/svg">
<path fill-rule="evenodd" clip-rule="evenodd" d="M7.9648 0.0214844H16.3486C20.2065 0.0214844 23.335 3.15003 23.335 7.00797V15.3918C23.335 19.2497 20.2065 22.3782 16.3486 22.3782H7.9648C4.10687 22.3782 0.978333 19.2497 0.978333 15.3918V7.00797C0.978333 3.15003 4.10687 0.0214844 7.9648 0.0214844ZM16.3485 20.2821C19.0453 20.2821 21.2391 18.0883 21.2391 15.3915V7.00773C21.2391 4.31094 19.0453 2.11719 16.3485 2.11719H7.96471C5.26792 2.11719 3.07416 4.31094 3.07416 7.00773V15.3915C3.07416 18.0883 5.26792 20.2821 7.96471 20.2821H16.3485Z" fill="white"/>
<path fill-rule="evenodd" clip-rule="evenodd" d="M6.56744 11.2C6.56744 8.1134 9.07 5.61084 12.1566 5.61084C15.2432 5.61084 17.7458 8.1134 17.7458 11.2C17.7458 14.2867 15.2432 16.7892 12.1566 16.7892C9.07 16.7892 6.56744 14.2867 6.56744 11.2ZM8.66339 11.1998C8.66339 13.1253 10.2312 14.693 12.1567 14.693C14.0822 14.693 15.65 13.1253 15.65 11.1998C15.65 9.27291 14.0822 7.70654 12.1567 7.70654C10.2312 7.70654 8.66339 9.27291 8.66339 11.1998Z" fill="white"/>
<ellipse cx="18.165" cy="5.19154" rx="0.744751" ry="0.74476" fill="white"/>
</svg>
