<svg width="24" height="19" viewBox="0 0 24 19" fill="none" xmlns="http://www.w3.org/2000/svg">
<path d="M23.3297 2.20415C22.4983 2.56885 21.6124 2.81058 20.6888 2.92795C21.6389 2.36065 22.3641 1.46917 22.7051 0.394651C21.8192 0.92283 20.8411 1.29591 19.7987 1.50411C18.9575 0.608438 17.7586 0.0537109 16.4508 0.0537109C13.9133 0.0537109 11.8704 2.11333 11.8704 4.63824C11.8704 5.00154 11.9012 5.35086 11.9766 5.68342C8.16618 5.49758 4.79451 3.67131 2.52949 0.889295C2.13405 1.57537 1.9021 2.36065 1.9021 3.20601C1.9021 4.79334 2.71952 6.20042 3.93796 7.01505C3.20159 7.00107 2.47919 6.78729 1.86717 6.45054C1.86717 6.46451 1.86717 6.48268 1.86717 6.50084C1.86717 8.72813 3.4559 10.5782 5.53927 11.0043C5.16619 11.1063 4.75958 11.1552 4.33759 11.1552C4.04416 11.1552 3.74793 11.1385 3.46987 11.077C4.06372 12.8921 5.74886 14.2265 7.75259 14.2698C6.1932 15.4897 4.21323 16.2246 2.06978 16.2246C1.69391 16.2246 1.3334 16.2079 0.9729 16.1618C3.00317 17.471 5.40932 18.2186 8.0041 18.2186C16.4382 18.2186 21.0493 11.2321 21.0493 5.1762C21.0493 4.97359 21.0423 4.77797 21.0325 4.58375C21.9421 3.9382 22.7065 3.13196 23.3297 2.20415Z" fill="white"/>
</svg>
